<?xml version="1.0" encoding="iso-8859-1"?>
<!-- Generator: Adobe Illustrator 19.0.0, SVG Export Plug-In . SVG Version: 6.00 Build 0)  -->
<svg version="1.1" id="Capa_1" xmlns="http://www.w3.org/2000/svg" xmlns:xlink="http://www.w3.org/1999/xlink" x="0px" y="0px"
	 viewBox="0 0 479.692 479.692" style="enable-background:new 0 0 479.692 479.692;" xml:space="preserve">
<g>
	<g>
		<g>
			<path d="M65.949,283.815l367.367-64.766c0.159-0.027,0.318-0.055,0.477-0.084c30.34-5.489,50.486-34.534,44.998-64.874
				c-0.008-0.047-0.017-0.095-0.025-0.142c-5.41-30.442-34.474-50.735-64.917-45.324l-15.693,2.765
				c-1.07,5.708-2.321,11.531-3.924,17.502c-6.575,24.638-18.483,53.792-32.171,61.675c-2.368,1.426-5.073,2.197-7.838,2.233
				c-1.179,0.002-2.353-0.152-3.492-0.458c-3.795-1.075-6.988-3.651-8.842-7.133c-7.366-12.666-4.183-40.497,1.604-64.189
				l-35.604,6.272c-0.878,4.382-1.981,9.128-3.417,14.608c-1.833,6.858-17.787,63.963-40.042,63.963
				c-1.154-0.002-2.302-0.153-3.417-0.45c-19.98-5.415-12.336-49.327-7.992-68.454l-35.271,6.214
				c-0.782,3.656-1.657,7.411-2.729,11.344c-6.566,24.612-18.475,53.762-32.162,61.65c-2.368,1.426-5.073,2.197-7.838,2.233
				c-1.179,0.002-2.353-0.152-3.492-0.458c-3.795-1.075-6.988-3.651-8.842-7.133c-6.725-11.564-4.654-35.799,0.156-57.962
				l-33.296,5.866c-1.202,6.573-2.586,13.099-4.294,19.426c-6.283,23.479-18.5,53.721-32.233,61.604
				c-2.351,1.414-5.036,2.178-7.779,2.213c-1.182,0.002-2.36-0.155-3.5-0.467c-3.805-1.08-7.002-3.669-8.85-7.167
				c-7.578-13.067-3.782-42.841,2.062-65.93l-28.483,5.005c-0.093,0.016-0.186,0.032-0.278,0.049
				c-30.478,5.455-50.764,34.584-45.309,65.062S35.47,289.27,65.949,283.815z"/>
			<path d="M108.778,173.707c1.042-3.858,1.983-7.787,2.825-11.754l-18.137,3.192c-0.392,1.346-0.771,2.683-1.129,4.054
				c-5.716,17.398-7.649,35.816-5.671,54.021C97.46,208.467,104.997,191.591,108.778,173.707z"/>
			<path d="M198.545,150.073c0.337-1.239,0.658-2.458,0.962-3.658l-18.438,3.246c-4.925,16.185-6.495,33.204-4.612,50.017
				C187.25,184.894,194.779,167.986,198.545,150.073z"/>
			<path d="M287.978,137.527c0.654-2.496,1.237-4.829,1.754-7.033l-8.494,1.492l-9.865,1.738
				c-5.592,17.193-7.471,35.376-5.511,53.349C276.65,172.305,284.188,155.419,287.978,137.527z"/>
			<path d="M377.745,124.473c0.903-3.347,1.714-6.66,2.433-9.918l-14.907,2.626l-3.334,0.592c-0.222,0.767-0.433,1.533-0.633,2.3
				c-5.663,17.403-7.587,35.806-5.646,54.004C366.45,159.294,373.979,142.386,377.745,124.473z"/>
			<path d="M100.249,326.232L100.249,326.232c7.773,2.117,15.798,3.163,23.854,3.108c17.079,0.721,33.857-4.661,47.329-15.183
				c4.843-3.823,7.807-9.543,8.137-15.704c-0.462-6.258-3.583-12.019-8.572-15.825L68.933,300.622
				C70.423,311.263,82.544,321.37,100.249,326.232z"/>
			<path d="M440.761,234.869c2.167,4.504,3.307,9.432,3.338,14.43c-0.043,5.66-1.491,11.22-4.215,16.182l0.506-0.09
				c15.808-2.759,29.658-12.203,38-25.912c-1.479-6.874-4.234-13.409-8.124-19.266C461.68,227.287,451.586,232.301,440.761,234.869z
				"/>
			<path d="M322.232,262.851c10.795,10.008,24.755,15.917,39.454,16.701l0,0c16.533,1.86,33.254-1.02,48.212-8.304
				c9.235-3.714,15.773-12.09,17.133-21.95c-0.092-4.044-1.517-7.945-4.055-11.095l-103.819,18.304
				C320.387,258.517,321.417,260.642,322.232,262.851z"/>
			<path d="M416.388,286.991c-17.15,8.237-36.242,11.575-55.169,9.644l-54.224,9.617c-16.054,11.246-35.297,17.036-54.892,16.516
				c-7.973-0.025-15.92-0.925-23.697-2.684l-47.627,8.41c-16.349,12.156-36.31,18.464-56.675,17.911
				c-8.839,0.004-17.643-1.099-26.208-3.282l-21.9,3.836c-4.257,0.757-8.572,1.139-12.896,1.142
				c-25.821-0.055-49.689-13.761-62.751-36.034c-0.084,1.235-0.236,2.466-0.236,3.705c0.007,3.161,0.28,6.316,0.817,9.432
				c5.278,30.634,34.391,51.188,65.024,45.91l367.362-64.771c21.181-3.699,38.34-19.261,44.083-39.981
				c-9.766,8.171-21.508,13.63-34.05,15.832L416.388,286.991z"/>
			<path d="M51.901,301.451c-13.501-0.706-26.535-5.18-37.623-12.915c-1.629-1.142-3.165-2.378-4.682-3.633
				c-0.368,0.553-0.708,1.121-1.053,1.687c6.077,28.273,32.64,47.301,61.364,43.958C60.001,323.888,53.441,313.287,51.901,301.451z"
				/>
			<path d="M300.135,259.861L197.076,278.03c2.136,10.741,14.918,20.581,33.335,25.106c24.113,5.888,52.788,0.896,67.688-11.5
				c5.461-3.918,8.925-10.038,9.471-16.737c-0.06-1.325-0.263-2.64-0.605-3.922c-2.284-2.92-4.124-6.161-5.458-9.62
				C301.058,260.849,300.617,260.327,300.135,259.861z"/>
		</g>
	</g>
</g>
<g>
</g>
<g>
</g>
<g>
</g>
<g>
</g>
<g>
</g>
<g>
</g>
<g>
</g>
<g>
</g>
<g>
</g>
<g>
</g>
<g>
</g>
<g>
</g>
<g>
</g>
<g>
</g>
<g>
</g>
</svg>
