<?xml version="1.0" encoding="utf-8"?>
<!-- Generator: Adobe Illustrator 16.0.0, SVG Export Plug-In . SVG Version: 6.00 Build 0)  -->
<!DOCTYPE svg PUBLIC "-//W3C//DTD SVG 1.1//EN" "http://www.w3.org/Graphics/SVG/1.1/DTD/svg11.dtd">
<svg version="1.1" id="Layer_1" xmlns="http://www.w3.org/2000/svg" xmlns:xlink="http://www.w3.org/1999/xlink" x="0px" y="0px"
	 width="512px" height="512px" viewBox="0 0 512 512" enable-background="new 0 0 512 512" xml:space="preserve">
<g>
	<path d="M427.5,404.699c-1.695,0.133-4.076,0.241-7.043,0.241c-8.557,0-53.353-1.118-94.998-23.13
		c-73.561-38.883-138.282-56.996-203.688-56.996c-3.933,0-7.88,0.064-11.853,0.197c-6.088,0.205-12.094,0.313-17.964,0.313
		c-18.038,0-55.257-0.002-82.758-13.465l0.118,47.241c0.018,8.716,4.777,16.766,12.4,20.987
		c17.498,9.682,50.787,12.03,87.102,10.816c83.482-2.792,158.199,21.565,232.033,60.598c34.898,18.446,74.943,19.886,84.078,19.169
		c19.17-1.528,50.08-4.285,69.686-20.915c5.369-4.575,8.474-11.282,8.474-18.342v-66.378
		C483.609,388.22,457.127,402.341,427.5,404.699z"/>
	<path d="M91.954,292.389c5.517,0,11.153-0.104,16.862-0.293c4.342-0.145,8.66-0.217,12.954-0.217
		c78.296,0,149.081,23.813,219.079,60.814c30.781,16.267,65.56,19.311,79.607,19.311c1.881,0,3.393-0.057,4.471-0.141
		c75.57-6.015,103.955-115.125,55.516-199.637c-23.367-40.776-84.045-106.568-153.682-113.21c-3.297-0.313-7.205-0.551-11.547-0.551
		c-18.357,0-44.652,4.229-67.03,24.795c-12.722,11.667-69.989,47.322-85.687,50.988C66.054,156.788-2.521,216.188,9.332,266.918
		C13.85,286.193,49.16,292.389,91.954,292.389z M91.689,218.271c5.355-0.934,104.871-18.213,171.371-28.651
		c16.066-2.525,28.369-15.592,29.865-31.793l3.473-37.73c1.109-12.038,11.869-20.842,23.77-19.749
		c12.014,1.109,20.859,11.748,19.749,23.761l-3.394,36.747c-1.864,20.24,5.371,40.263,19.734,54.631l55.032,55.034
		c8.539,8.532,8.539,22.37,0,30.894c-4.262,4.271-9.859,6.401-15.456,6.401c-5.58,0-11.176-2.131-15.438-6.401l-67.898-67.892
		c-7.978-7.984-19.348-11.699-30.51-9.995c-65.744,10.059-182.661,30.362-184.059,30.613c-1.063,0.185-2.108,0.273-3.152,0.273
		c-8.669,0-16.373-6.24-17.901-15.085C75.155,229.423,81.782,219.992,91.689,218.271z"/>
</g>
</svg>
